PathFileType	4	(X/Y/Z)	/Users/itak/Documents/Research/Walk-IL/dataset/trc/00031_00004.trc
DataRate	CameraRate	NumFrames	NumMarkers	Units	OrigDataRate	OrigDataStartFrame	OrigNumFrames
100.000000	100.000000	4	53	mm	100.000000	95	764
Frame#	Time	RPSI			LPSI			L3			STRN			T10			C7			CLAV			RBAK			LBAK			LSHO			LUPA			LAEL			LAOL			LWTS			LWPS			LFRA			LIFD			LHPS			LHTS			RSHO			RUPA			RAEL			RAOL			RWTS			RWPS			RFRA			RIFD			RHTS			RHPS			RBHD			LFHD			RFHD			LBHD			LHIP			RHIP			RASI			LASI			LKNE			LTHI			LANK			LTIP			LTOE			LMT1			LMT5			LHEE			RKNE			RTHI			RANK			RTIP			RTOE			RMT1			RMT5			RHEE			
		X1	Y1	Z1	X2	Y2	Z2	X3	Y3	Z3	X4	Y4	Z4	X5	Y5	Z5	X6	Y6	Z6	X7	Y7	Z7	X8	Y8	Z8	X9	Y9	Z9	X10	Y10	Z10	X11	Y11	Z11	X12	Y12	Z12	X13	Y13	Z13	X14	Y14	Z14	X15	Y15	Z15	X16	Y16	Z16	X17	Y17	Z17	X18	Y18	Z18	X19	Y19	Z19	X20	Y20	Z20	X21	Y21	Z21	X22	Y22	Z22	X23	Y23	Z23	X24	Y24	Z24	X25	Y25	Z25	X26	Y26	Z26	X27	Y27	Z27	X28	Y28	Z28	X29	Y29	Z29	X30	Y30	Z30	X31	Y31	Z31	X32	Y32	Z32	X33	Y33	Z33	X34	Y34	Z34	X35	Y35	Z35	X36	Y36	Z36	X37	Y37	Z37	X38	Y38	Z38	X39	Y39	Z39	X40	Y40	Z40	X41	Y41	Z41	X42	Y42	Z42	X43	Y43	Z43	X44	Y44	Z44	X45	Y45	Z45	X46	Y46	Z46	X47	Y47	Z47	X48	Y48	Z48	X49	Y49	Z49	X50	Y50	Z50	X51	Y51	Z51	X52	Y52	Z52	X53	Y53	Z53	

96	0.9500000000000001	321.3357543945312	1068.131958007812	1014.02294921875	332.0559692382812	1061.811767578125	1176.017333984375	330.4722290039062	1127.738891601562	1106.912963867188	90.72111511230469	1301.635498046875	1108.165161132812	342.1962585449219	1273.034423828125	1122.15771484375	268.115478515625	1535.137573242188	1140.99658203125	122.625129699707	1430.11328125	1119.16748046875	341.22998046875	1406.715698242188	1061.14404296875	282.5310974121094	1492.587524414062	1237.459594726562	175.2551422119141	1488.009765625	1303.101806640625	213.5222015380859	1367.290771484375	1383.749145507812	234.9898986816406	1151.723754882812	1415.223022460938	298.6235961914062	1144.138427734375	1330.411865234375	175.8013763427734	890.7339477539062	1352.285400390625	246.7999420166016	884.5352172851562	1404.230590820312	231.2756805419922	1034.55859375	1421.875854492188	162.6331329345703	703.9087524414062	1327.0888671875	220.7498016357422	791.008056640625	1399.6865234375	161.1849975585938	795.5133056640625	1361.953002929688	210.1665344238281	1518.274780273438	959.6868896484375	239.2991027832031	1454.4912109375	889.0241088867188	318.3932495117188	1197.342529296875	856.6347045898438	311.5888061523438	1165.182739257812	950.8483276367188	208.3421325683594	926.875244140625	865.1416015625	279.302734375	918.4609985351562	806.801025390625	315.5922546386719	1119.922729492188	836.3419189453125	203.7319030761719	739.9259643554688	879.60107421875	184.3756103515625	815.9859619140625	847.93212890625	245.3509216308594	814.5907592773438	803.6689453125	153.3213043212891	1703.346801757812	1209.996337890625	64.95630645751953	1711.481811523438	1010.323425292969	12.61566257476807	1709.423950195312	1094.64501953125	222.9374389648438	1703.956665039062	1084.047119140625	248.8541107177734	955.0714111328125	1286.747314453125	200.5169830322266	954.3328857421875	915.3215942382812	108.4925765991211	984.9924926757812	999.5477294921875	123.995475769043	994.8268432617188	1234.467895507812	225.3045501708984	514.370849609375	1260.510131835938	245.431396484375	652.7344970703125	1287.356567382812	373.375244140625	40.3409309387207	1262.279907226562	330.0161437988281	286.8740539550781	1275.181762695312	151.4943084716797	41.75299835205078	1204.03759765625	210.8581848144531	50.28976821899414	1186.748168945312	249.4504852294922	37.60703659057617	1287.84814453125	441.3428955078125	47.85026931762695	1206.978881835938	56.56310653686523	541.266845703125	939.5872802734375	142.0023803710938	801.3007202148438	917.790283203125	202.4340057373047	67.08588409423828	1049.728637695312	82.05290222167969	407.4573364257812	955.9293212890625	-28.9413890838623	75.40934753417969	1012.010620117188	22.06147003173828	76.73922729492188	1061.165405273438	69.71370697021484	66.31015014648438	979.1972045898438	239.0083465576172	68.83527374267578	1110.560546875	
97	0.96	318.1165466308594	1067.583740234375	1012.79931640625	327.6890869140625	1061.262817382812	1174.835571289062	326.4583129882812	1127.134155273438	1105.855346679688	86.55788421630859	1300.79248046875	1105.392944335938	337.947509765625	1272.379028320312	1121.447509765625	263.4989318847656	1534.408325195312	1139.843994140625	118.2921829223633	1429.299072265625	1116.732788085938	337.4048461914062	1406.093872070312	1060.577514648438	277.133056640625	1491.833740234375	1236.38671875	169.3257751464844	1487.16796875	1301.12939453125	207.0041809082031	1366.509887695312	1382.139526367188	228.3580474853516	1150.957153320312	1413.866088867188	292.7706604003906	1143.393676757812	1329.60693359375	169.6901702880859	889.9925537109375	1350.251831054688	240.2557220458984	883.7643432617188	1402.812255859375	224.5921173095703	1033.776733398438	1420.439086914062	155.7572784423828	703.4656372070312	1324.4853515625	213.9109497070312	790.1988525390625	1398.133911132812	154.7914428710938	794.8323364257812	1359.782348632812	207.0914764404297	1517.55224609375	958.0177001953125	236.9740447998047	1453.837646484375	887.6340942382812	316.9723205566406	1196.945190429688	855.884521484375	309.2060852050781	1164.639282226562	949.9635620117188	208.3362579345703	925.8731079101562	862.7177124023438	279.9778442382812	918.0107421875	805.1405639648438	314.7025451660156	1119.611328125	835.4527587890625	204.9893951416016	738.8025512695312	876.9381103515625	185.2208557128906	814.8737182617188	845.0401000976562	246.7178039550781	813.9365844726562	801.4854736328125	147.9671783447266	1702.5419921875	1207.827392578125	61.60614776611328	1710.654418945312	1007.287780761719	8.445877075195312	1708.607055664062	1091.0791015625	218.8630065917969	1703.149291992188	1082.602905273438	244.0074310302734	954.3724365234375	1284.852416992188	197.9723968505859	953.9480590820312	913.1780395507812	105.412712097168	984.4568481445312	996.8760375976562	119.248046875	993.9403076171875	1231.87890625	223.4473724365234	513.9337768554688	1258.890014648438	242.2621154785156	652.2635498046875	1285.6650390625	373.39013671875	40.51428604125977	1262.101928710938	329.1417236328125	286.9115600585938	1274.294189453125	151.4590759277344	41.76328277587891	1204.04150390625	210.8660888671875	50.30148315429688	1186.6025390625	249.4490051269531	37.79858779907227	1287.703247070312	441.2916564941406	47.93156051635742	1206.739501953125	51.16127395629883	542.294189453125	936.0524291992188	138.7527008056641	801.4631958007812	914.97802734375	185.6437072753906	65.57704925537109	1049.197387695312	74.20353698730469	408.2564697265625	953.0757446289062	-44.96029663085938	75.85264587402344	1007.096862792969	5.165956020355225	77.01145172119141	1057.139526367188	54.29722213745117	65.99607849121094	976.0873413085938	220.9690399169922	67.10036468505859	1110.735961914062	
98	0.97	314.7740173339844	1066.92724609375	1011.566284179688	323.1438903808594	1060.636108398438	1173.640991210938	322.3024291992188	1126.431884765625	1104.764770507812	82.27947235107422	1299.904296875	1102.4814453125	333.5733642578125	1271.642211914062	1120.634399414062	258.7947387695312	1533.609252929688	1138.53466796875	113.8662948608398	1428.437255859375	1114.147094726562	333.4665832519531	1405.380615234375	1059.880004882812	271.636962890625	1491.018920898438	1235.152221679688	163.2957305908203	1486.282958984375	1298.985595703125	200.3647766113281	1365.68994140625	1380.377075195312	221.5669860839844	1150.14794921875	1412.380493164062	286.7673950195312	1142.5947265625	1328.686157226562	163.3532257080078	889.2377319335938	1348.086791992188	233.4651794433594	882.9360961914062	1401.272827148438	217.7335205078125	1032.95654296875	1418.870971679688	149.4458312988281	702.8934936523438	1322.284790039062	206.8871917724609	789.3710327148438	1396.401611328125	148.1651000976562	794.1244506835938	1357.470703125	203.9428405761719	1516.759399414062	956.2054443359375	234.5568542480469	1453.098754882812	886.116943359375	315.4124145507812	1196.442993164062	855.084716796875	306.6346740722656	1163.996215820312	949.0180053710938	208.1832885742188	924.7841186523438	860.2234497070312	280.52685546875	917.4698486328125	803.4581909179688	313.6681823730469	1119.198486328125	834.52685546875	206.1863861083984	737.5836181640625	874.2918701171875	185.9387359619141	813.6780395507812	842.09033203125	247.9539489746094	813.1959228515625	799.279296875	142.6024017333984	1701.693115234375	1205.493530273438	58.18304061889648	1709.789306640625	1004.130249023438	4.254173755645752	1707.768310546875	1087.411743164062	214.7294464111328	1702.275024414062	1080.974487304688	238.9331359863281	953.6193237304688	1282.943969726562	195.3394165039062	953.479736328125	911.009765625	102.1960678100586	983.8611450195312	994.1351318359375	114.2978820800781	993.0235595703125	1229.215576171875	221.4339904785156	513.4608764648438	1257.194213867188	238.86767578125	651.7312622070312	1283.922729492188	373.4062805175781	40.70450973510742	1261.921020507812	328.17431640625	286.9343872070312	1273.3896484375	151.4230804443359	41.78113174438477	1204.050048828125	210.8894653320312	50.31963729858398	1186.442749023438	249.4555511474609	38.03316116333008	1287.53076171875	441.2420043945312	48.02329254150391	1206.4853515625	45.71494293212891	543.2745361328125	932.4395751953125	135.3971405029297	801.5498046875	912.1024780273438	168.3925628662109	64.10984802246094	1047.87646484375	66.21128082275391	409.0599670410156	949.9847412109375	-61.38448333740234	76.01554870605469	1001.467407226562	-12.13778591156006	77.08155059814453	1052.361938476562	38.45256423950195	65.57077026367188	972.236083984375	202.4634857177734	65.43500518798828	1110.095825195312	
99	0.98	311.30078125	1066.156127929688	1010.318237304688	318.4229125976562	1059.925170898438	1172.42578125	318.0061340332031	1125.630493164062	1103.63427734375	77.88529968261719	1298.96826171875	1099.433349609375	329.0700988769531	1270.822509765625	1119.710083007812	253.9999084472656	1532.738647460938	1137.060546875	109.3369293212891	1427.527587890625	1111.40478515625	329.4089660644531	1404.574951171875	1059.041015625	266.0443725585938	1490.1416015625	1233.749267578125	157.1692657470703	1485.354125976562	1296.66650390625	193.6065521240234	1364.830444335938	1378.457763671875	214.61279296875	1149.2939453125	1410.760986328125	280.6090087890625	1141.737548828125	1327.643676757812	156.7937164306641	888.4671020507812	1345.790405273438	226.41845703125	882.0504150390625	1399.616455078125	210.6967468261719	1032.097778320312	1417.168579101562	143.7740325927734	702.1639404296875	1320.531982421875	199.6894683837891	788.5217895507812	1394.485717773438	141.3159790039062	793.3850708007812	1355.018798828125	200.7126770019531	1515.891479492188	954.2454833984375	232.0370483398438	1452.273681640625	884.4649047851562	313.713134765625	1195.837768554688	854.22412109375	303.8811645507812	1163.255249023438	948.0017700195312	207.8698120117188	923.61474609375	857.6693725585938	280.9301147460938	916.8366088867188	801.758056640625	312.4893798828125	1118.682983398438	833.5565185546875	207.288330078125	736.2776489257812	871.6773681640625	186.5080261230469	812.4060668945312	839.1009521484375	249.0354461669922	812.3677978515625	797.06494140625	137.2217712402344	1700.796997070312	1202.991577148438	54.68677520751953	1708.880859375	1000.843078613281	0.03243070468306541	1706.901123046875	1083.630615234375	210.5347442626953	1701.331298828125	1079.160766601562	233.6459350585938	952.80859375	1281.023071289062	192.5923767089844	952.9242553710938	908.8197021484375	98.8370361328125	983.2008666992188	991.3416137695312	109.160774230957	992.0701904296875	1226.490112304688	219.262939453125	512.9480590820312	1255.44482421875	235.2726287841797	651.1435546875	1282.136596679688	373.4210205078125	40.91452407836914	1261.73486328125	327.1146850585938	286.9423828125	1272.470947265625	151.3849487304688	41.80722427368164	1204.066162109375	210.9206390380859	50.33672332763672	1186.271240234375	249.4721221923828	38.30948257446289	1287.332641601562	441.1937255859375	48.12785339355469	1206.219848632812	40.21921920776367	544.1981201171875	928.7509155273438	131.9297485351562	801.5523681640625	909.1724243164062	150.7471466064453	62.70431900024414	1045.719970703125	58.0797233581543	409.8598937988281	946.649169921875	-78.17265319824219	75.90544128417969	995.1503295898438	-29.79046440124512	76.96142578125	1046.846435546875	22.21452522277832	65.03299713134766	967.6417846679688	183.5806427001953	63.8665771484375	1108.585693359375	
